<?xml version="1.0" encoding="UTF-8" standalone="no"?>
<svg width="1200" height="600" viewBox="0 0 1200 600" xmlns="http://www.w3.org/2000/svg">
  <!-- Background with subtle gradient -->
  <defs>
    <linearGradient id="room-gradient" x1="0%" y1="0%" x2="100%" y2="100%">
      <stop offset="0%" stop-color="#f8f9fa" />
      <stop offset="100%" stop-color="#e6f2f2" />
    </linearGradient>
    
    <!-- Subtle grid pattern for floor -->
    <pattern id="floor-grid" width="100" height="100" patternUnits="userSpaceOnUse">
      <path d="M 100 0 L 0 0 0 100" fill="none" stroke="#48A6A7" stroke-width="0.5" stroke-opacity="0.2" />
    </pattern>
    
    <!-- Wood texture pattern for furniture -->
    <pattern id="wood-texture" width="100" height="100" patternUnits="userSpaceOnUse">
      <rect width="100" height="100" fill="#D4A76A" />
      <path d="M 0 20 L 100 20 M 0 40 L 100 40 M 0 60 L 100 60 M 0 80 L 100 80" stroke="#BC8A4A" stroke-width="2" stroke-opacity="0.3" />
    </pattern>
    
    <!-- Shadow filter -->
    <filter id="shadow" x="-10%" y="-10%" width="120%" height="120%">
      <feDropShadow dx="0" dy="4" stdDeviation="10" flood-color="#000" flood-opacity="0.15" />
    </filter>
    
    <!-- Soft shadow -->
    <radialGradient id="floor-shadow" cx="50%" cy="50%" r="50%" fx="50%" fy="50%">
      <stop offset="0%" stop-color="#000" stop-opacity="0.2" />
      <stop offset="100%" stop-color="#000" stop-opacity="0" />
    </radialGradient>
  </defs>
  
  <!-- Main background -->
  <rect width="1200" height="600" fill="url(#room-gradient)" />
  
  <!-- Title Area - Moved up to create more space -->
  <g transform="translate(600, 60)">
    <text text-anchor="middle" font-family="Arial, sans-serif" font-size="48" font-weight="bold" fill="#006A71">Roometry3D Room Visualization</text>
    <text text-anchor="middle" font-family="Arial, sans-serif" font-size="22" font-weight="normal" fill="#48A6A7" y="40">Design, Visualize, and Transform Interior Spaces in 3D</text>
  </g>
  
  <!-- 3D Room Visualization - Moved down to create more space from text -->
  <g transform="translate(600, 330)" filter="url(#shadow)">
    <!-- Room floor with shadow -->
    <ellipse cx="0" cy="210" rx="250" ry="40" fill="url(#floor-shadow)" opacity="0.4" />
    
    <!-- Room floor -->
    <polygon points="-400,-50 400,-50 300,200 -300,200" fill="url(#floor-grid)" stroke="#48A6A7" stroke-width="1.5" />
    
    <!-- Back wall -->
    <polygon points="-400,-50 400,-50 400,-250 -400,-250" fill="#ffffff" stroke="#48A6A7" stroke-width="1.5" />
    
    <!-- Right wall -->
    <polygon points="400,-50 400,-250 300,-200 300,200" fill="#f0f7f7" stroke="#48A6A7" stroke-width="1.5" />
    
    <!-- Furniture: Sofa -->
    <g transform="translate(-180, 100)">
      <!-- Shadow -->
      <ellipse cx="0" cy="70" rx="100" ry="20" fill="rgba(0,0,0,0.1)" />
      
      <!-- Base -->
      <rect x="-80" y="-30" width="160" height="80" rx="5" fill="#9ACBD0" stroke="#006A71" stroke-width="1" />
      <!-- Backrest with gradient for more realistic look -->
      <rect x="-80" y="-70" width="160" height="40" rx="5" fill="#8BBBC0" stroke="#006A71" stroke-width="1" />
      <!-- Arms with shadows -->
      <rect x="-90" y="-70" width="20" height="120" rx="2" fill="#9ACBD0" stroke="#006A71" stroke-width="1" />
      <rect x="-85" y="-65" width="10" height="115" rx="2" fill="#8BBBC0" opacity="0.7" />
      <rect x="70" y="-70" width="20" height="120" rx="2" fill="#9ACBD0" stroke="#006A71" stroke-width="1" />
      <rect x="75" y="-65" width="10" height="115" rx="2" fill="#8BBBC0" opacity="0.7" />
      
      <!-- Cushions -->
      <rect x="-70" y="-25" width="45" height="70" rx="5" fill="#ADD8DE" stroke="#9ACBD0" stroke-width="1" />
      <rect x="-15" y="-25" width="45" height="70" rx="5" fill="#ADD8DE" stroke="#9ACBD0" stroke-width="1" />
      <rect x="40" y="-25" width="45" height="70" rx="5" fill="#ADD8DE" stroke="#9ACBD0" stroke-width="1" />
    </g>
    
    <!-- Furniture: Coffee Table -->
    <g transform="translate(-150, 0)">
      <!-- Shadow -->
      <ellipse cx="0" cy="60" rx="60" ry="20" fill="rgba(0,0,0,0.1)" />
      
      <!-- Table top with wood texture -->
      <rect x="-50" y="-30" width="100" height="60" rx="2" fill="url(#wood-texture)" stroke="#006A71" stroke-width="1" />
      <!-- Table legs with subtle shading -->
      <rect x="-40" y="30" width="8" height="50" fill="#BC8A4A" stroke="#A37840" stroke-width="0.5" />
      <rect x="32" y="30" width="8" height="50" fill="#BC8A4A" stroke="#A37840" stroke-width="0.5" />
      <rect x="-40" y="30" width="4" height="50" fill="#D4A76A" opacity="0.6" />
      <rect x="32" y="30" width="4" height="50" fill="#D4A76A" opacity="0.6" />
    </g>
    
    <!-- Furniture: Plant -->
    <g transform="translate(200, 120)">
      <!-- Shadow -->
      <ellipse cx="0" cy="40" rx="30" ry="10" fill="rgba(0,0,0,0.1)" />
      
      <!-- Pot -->
      <rect x="-20" y="-10" width="40" height="40" rx="2" fill="#E5E5E5" stroke="#CCCCCC" stroke-width="1" />
      <rect x="-25" y="-10" width="50" height="10" rx="2" fill="#D6D6D6" stroke="#CCCCCC" stroke-width="0.5" />
      
      <!-- Plant stems and leaves with varying greens -->
      <path d="M-10,-10 C-10,-40 10,-40 10,-10" stroke="#48A6A7" stroke-width="2" fill="none" />
      <path d="M0,-10 C0,-50 -15,-30 -5,-10" stroke="#3D8E8F" stroke-width="2" fill="none" />
      <path d="M0,-10 C0,-50 15,-30 5,-10" stroke="#5CBFC1" stroke-width="2" fill="none" />
      
      <!-- Additional leaves -->
      <path d="M-5,-30 C-15,-35 -20,-25 -10,-20" stroke="#3D8E8F" stroke-width="1.5" fill="#48A6A7" fill-opacity="0.3" />
      <path d="M5,-30 C15,-35 20,-25 10,-20" stroke="#3D8E8F" stroke-width="1.5" fill="#48A6A7" fill-opacity="0.3" />
      <path d="M-2,-40 C-10,-45 -15,-40 -5,-35" stroke="#5CBFC1" stroke-width="1.5" fill="#5CBFC1" fill-opacity="0.3" />
      <path d="M2,-40 C10,-45 15,-40 5,-35" stroke="#5CBFC1" stroke-width="1.5" fill="#5CBFC1" fill-opacity="0.3" />
    </g>
    
    <!-- Furniture: Bookshelf -->
    <g transform="translate(250, -150)">
      <!-- Shadow -->
      <rect x="-45" y="150" width="90" height="10" rx="2" fill="rgba(0,0,0,0.1)" />
      
      <!-- Main structure with wood texture -->
      <rect x="-40" y="-50" width="80" height="200" fill="url(#wood-texture)" stroke="#A37840" stroke-width="1" />
      <!-- Shelves with shadow effect -->
      <rect x="-40" y="-20" width="80" height="3" fill="#DEB77E" stroke="#A37840" stroke-width="0.5" />
      <rect x="-40" y="10" width="80" height="3" fill="#DEB77E" stroke="#A37840" stroke-width="0.5" />
      <rect x="-40" y="40" width="80" height="3" fill="#DEB77E" stroke="#A37840" stroke-width="0.5" />
      <rect x="-40" y="70" width="80" height="3" fill="#DEB77E" stroke="#A37840" stroke-width="0.5" />
      <rect x="-40" y="100" width="80" height="3" fill="#DEB77E" stroke="#A37840" stroke-width="0.5" />
      <rect x="-40" y="130" width="80" height="3" fill="#DEB77E" stroke="#A37840" stroke-width="0.5" />
      
      <!-- Books with varied heights and colors -->
      <rect x="-35" y="-45" width="30" height="25" fill="#006A71" opacity="0.7" />
      <rect x="-32" y="-45" width="24" height="25" fill="#48A6A7" opacity="0.9" />
      <rect x="-5" y="-45" width="25" height="22" fill="#006A71" opacity="0.8" />
      <rect x="20" y="-45" width="15" height="23" fill="#48A6A7" opacity="0.7" />
      
      <!-- Second shelf books -->
      <rect x="-38" y="-17" width="18" height="25" fill="#D15B5B" opacity="0.7" />
      <rect x="-19" y="-17" width="25" height="23" fill="#5B8CD1" opacity="0.7" />
      <rect x="7" y="-17" width="15" height="24" fill="#D1B35B" opacity="0.8" />
      <rect x="23" y="-17" width="12" height="22" fill="#5BD15B" opacity="0.7" />
      
      <!-- Third shelf items -->
      <rect x="-30" y="13" width="60" height="24" rx="2" fill="#E5E5E5" stroke="#CCCCCC" stroke-width="0.5" />
      <rect x="-25" y="18" width="50" height="14" rx="1" fill="#CCCCCC" stroke="#BBBBBB" stroke-width="0.5" />
      
      <!-- More items on other shelves -->
      <rect x="-35" y="43" width="25" height="24" fill="#D1915B" opacity="0.7" />
      <rect x="-8" y="43" width="40" height="24" fill="#5B8CD1" opacity="0.6" />
      
      <rect x="-32" y="73" width="60" height="24" rx="3" fill="#E0E0E0" stroke="#CCCCCC" stroke-width="0.5" />
    </g>
    
    <!-- Furniture: Chair -->
    <g transform="translate(50, 70)">
      <!-- Shadow -->
      <ellipse cx="0" cy="60" rx="40" ry="10" fill="rgba(0,0,0,0.1)" />
      
      <!-- Seat with wood texture -->
      <rect x="-30" y="-30" width="60" height="60" rx="2" fill="url(#wood-texture)" stroke="#A37840" stroke-width="1" />
      <!-- Backrest with wood texture and shading -->
      <rect x="-30" y="-80" width="60" height="50" rx="2" fill="url(#wood-texture)" stroke="#A37840" stroke-width="1" />
      <rect x="-25" y="-75" width="50" height="40" rx="1" fill="#E5C79A" stroke="#D4A76A" stroke-width="0.5" opacity="0.7" />
      
      <!-- Chair legs with subtle shading -->
      <rect x="-25" y="30" width="5" height="30" fill="#BC8A4A" stroke="#A37840" stroke-width="0.5" />
      <rect x="20" y="30" width="5" height="30" fill="#BC8A4A" stroke="#A37840" stroke-width="0.5" />
      <rect x="-25" y="30" width="2" height="30" fill="#D4A76A" opacity="0.6" />
      <rect x="20" y="30" width="2" height="30" fill="#D4A76A" opacity="0.6" />
    </g>
    
    <!-- Wall art -->
    <g transform="translate(-200, -150)">
      <!-- Frame with shadow -->
      <rect x="-62" y="-42" width="124" height="84" fill="#EEEEEE" stroke="#DDDDDD" stroke-width="0.5" />
      <rect x="-60" y="-40" width="120" height="80" fill="#ffffff" stroke="#DDDDDD" stroke-width="1" />
      <!-- Artwork with more realistic line pattern -->
      <path d="M-40,-20 L-20,-5 L-10,-25 L10,-15 L30,0 L40,15" stroke="#48A6A7" stroke-width="2" fill="none" />
      <path d="M-35,-10 L-15,15 L5,-5 L25,20 L35,5" stroke="#006A71" stroke-width="1.5" fill="none" />
      <circle cx="-20" cy="-5" r="3" fill="#48A6A7" />
      <circle cx="10" cy="-15" r="3" fill="#006A71" />
      <circle cx="30" cy="0" r="3" fill="#48A6A7" />
    </g>
    
    <!-- Lightlines/guides (for 3D effect) -->
    <line x1="-300" y1="200" x2="-400" y2="-50" stroke="#48A6A7" stroke-width="0.5" stroke-opacity="0.4" stroke-dasharray="5,5" />
    <line x1="300" y1="200" x2="400" y2="-50" stroke="#48A6A7" stroke-width="0.5" stroke-opacity="0.4" stroke-dasharray="5,5" />
    <line x1="300" y1="-200" x2="400" y2="-250" stroke="#48A6A7" stroke-width="0.5" stroke-opacity="0.4" stroke-dasharray="5,5" />
    
    <!-- Window on back wall with realistic glass effect -->
    <g transform="translate(100, -150)">
      <rect x="-72" y="-52" width="144" height="104" fill="#D6EEF5" stroke="#BDD5DA" stroke-width="1" />
      <rect x="-70" y="-50" width="140" height="100" fill="#E6F7FA" stroke="#006A71" stroke-width="1.5" />
      <!-- Window frame -->
      <line x1="0" y1="-50" x2="0" y2="50" stroke="#006A71" stroke-width="1.5" />
      <line x1="-70" y1="0" x2="70" y2="0" stroke="#006A71" stroke-width="1.5" />
      <!-- Glass reflection -->
      <rect x="-68" y="-48" width="66" height="46" fill="#F5FCFF" opacity="0.3" />
      <rect x="2" y="-48" width="66" height="46" fill="#F5FCFF" opacity="0.5" />
      <rect x="-68" y="2" width="66" height="46" fill="#F5FCFF" opacity="0.2" />
      <rect x="2" y="2" width="66" height="46" fill="#F5FCFF" opacity="0.4" />
    </g>
    
    <!-- Area rug -->
    <g transform="translate(-120, 80)">
      <rect x="-150" y="-50" width="300" height="180" rx="5" fill="#E6EDF2" stroke="#D6DDE2" stroke-width="1" opacity="0.8" />
      <rect x="-140" y="-40" width="280" height="160" rx="5" fill="none" stroke="#BFC5CA" stroke-width="2" stroke-dasharray="2,3" opacity="0.6" />
    </g>
  </g>
  
  <!-- 3D Design Elements -->
  <g transform="translate(80, 500)">
    <circle cx="0" cy="0" r="40" fill="#48A6A7" opacity="0.2" />
    <circle cx="0" cy="0" r="30" fill="#48A6A7" opacity="0.3" />
    <circle cx="0" cy="0" r="20" fill="#48A6A7" opacity="0.4" />
    <path d="M-15,-15 L15,15 M-15,15 L15,-15" stroke="#006A71" stroke-width="2" />
  </g>
  
  <g transform="translate(1120, 500)">
    <rect x="-30" y="-30" width="60" height="60" fill="#48A6A7" opacity="0.2" />
    <rect x="-20" y="-20" width="40" height="40" fill="#48A6A7" opacity="0.3" />
    <rect x="-10" y="-10" width="20" height="20" fill="#48A6A7" opacity="0.4" />
  </g>
  
  <!-- Features - Moved lower to create more space -->
  <g transform="translate(250, 550)" font-family="Arial, sans-serif" font-size="18" fill="#006A71">
    <text text-anchor="middle">🏡 3D Visualization</text>
  </g>
  
  <g transform="translate(600, 550)" font-family="Arial, sans-serif" font-size="18" fill="#006A71">
    <text text-anchor="middle">👥 Real-time Collaboration</text>
  </g>
  
  <g transform="translate(950, 550)" font-family="Arial, sans-serif" font-size="18" fill="#006A71">
    <text text-anchor="middle">🪑 Interactive Furniture</text>
  </g>
</svg>